<svg width="128" height="48" viewBox="0 0 128 48" fill="none" xmlns="http://www.w3.org/2000/svg">
<path d="M47.3314 41.9397C47.5564 42.1793 49.8864 39.8049 50.3727 39.8049C51.4759 39.7904 50.692 41.78 50.2856 42.2665C51.1856 42.1285 51.1929 40.7924 52.2598 41.1192C52.3034 43.1814 50.0606 44.6772 48.4274 45.5848C42.6352 48.7943 35.0574 48.2352 28.7354 47.146C22.3262 46.0423 16.2074 43.7768 10.6257 40.4657L5.66819 46.6886C5.1964 47.3493 4.2891 46.7539 4.57218 46.1004L9.53692 39.7178C5.79159 37.0892 1.66882 33.1028 0.260687 28.6154C-1.6773 22.4434 7.69329 21.1291 11.7435 20.0617C15.5178 19.0669 19.96 17.5057 23.9231 17.7671C24.4602 17.8035 26.3837 18.319 26.6232 18.1956C30.325 13.454 33.8743 8.95204 38.6358 5.21977C41.2997 3.13581 44.8418 0.507248 48.275 0.0643141C49.5815 -0.102694 50.4961 -0.0228204 51.0912 1.26968C51.8243 2.8744 51.6792 6.48323 51.6066 8.32757C51.3526 15.1894 50.8662 23.0388 50.1186 29.8571C49.6686 33.9742 48.754 38.0622 47.3241 41.9397H47.3314ZM28.9241 19.5824C31.2831 21.1944 33.5259 23.4745 35.5002 25.5802C39.1367 29.4722 41.8803 33.1319 43.4627 38.3236L44.4498 42.0995C46.0104 39.5 46.6273 36.276 46.9757 33.2844C47.3241 30.2927 47.2443 27.2067 47.3169 24.0917C47.4258 19.2557 47.8758 12.2051 46.9467 7.54336C46.1192 3.38269 42.7078 5.86602 40.6029 7.51432C36.4438 10.7673 32.8872 15.4871 29.0765 19.1613L28.9168 19.5752L28.9241 19.5824ZM18.7043 20.127C15.1259 20.4247 10.7491 21.3034 7.7441 23.3002C0.681675 27.9764 7.13439 33.6111 11.591 36.9803L24.482 20.8169C22.8416 19.9019 20.5479 19.9746 18.7043 20.127ZM26.5724 21.8988L12.8177 37.9097C18.9293 42.3681 27.1022 44.561 34.5929 45.229C35.7252 45.3307 41.3723 45.6429 41.9747 45.2145C42.3739 44.9313 42.265 43.9874 42.2287 43.5009C41.815 37.5467 33.6784 27.6714 29.2507 23.7722C28.8443 23.4164 26.9571 21.7971 26.5651 21.8988H26.5724Z" fill="#1E1E1E"/>
<path d="M57.1085 44.7351L56.8907 44.3647L61.7031 21.2232C61.9136 20.9401 65.7242 20.9836 66.3122 21.2232L73.3746 37.0091L76.7352 21.1289C76.8513 21.049 76.953 21.2305 76.9893 21.2305H80.9306C80.9741 21.2305 81.054 21.0272 81.1773 21.1434L81.3298 21.4556L76.5392 44.5317C76.2997 44.8149 73.2657 44.8004 72.7068 44.7423C72.431 44.7133 72.1624 44.7641 71.9664 44.4954L64.8242 28.6224L61.3764 44.7351H57.1012H57.1085Z" fill="#1E1E1E"/>
<path d="M96.3763 44.7353C96.2747 44.7208 96.0134 44.5683 95.9699 44.4448L94.8884 38.8101H87.209L84.0298 44.5828C83.4419 44.8006 78.9417 44.8805 78.8763 44.4812L91.6874 21.3034C92.2245 20.7588 95.1424 21.2235 96.0352 21.0565L100.869 44.2052C100.971 44.3795 100.768 44.7353 100.652 44.7353C99.4612 44.7353 97.4433 44.9168 96.3763 44.7353ZM94.1625 34.7076L92.9286 27.9692L89.3938 34.7076H94.1625Z" fill="#1E1E1E"/>
<path d="M104.593 21.0639L107.714 37.3363L116.17 21.1293C116.286 21.0566 116.388 21.2236 116.417 21.2236H121.265L108.621 44.445C108.062 44.9969 105.507 44.6846 104.665 44.6483L104.382 44.1037L100.093 21.427L100.31 21.0566H104.586L104.593 21.0639Z" fill="#1E1E1E"/>
<path d="M127.762 21.064C127.929 21.1148 128.059 21.4052 127.972 21.594L123.203 44.5322C123.174 44.5685 122.855 44.7355 122.833 44.7355H118.892C118.834 44.7355 118.631 44.554 118.493 44.554V44.1909L123.486 21.064H127.762Z" fill="#1E1E1E"/>
<path d="M53.6825 38.4254C52.151 39.9575 50.0823 37.2419 51.9477 36.1091C53.3776 35.245 54.8584 37.2491 53.6825 38.4254Z" fill="#1E1E1E"/>
</svg>
