<svg width="75" height="75" viewBox="0 0 75 75" fill="none" xmlns="http://www.w3.org/2000/svg">
<path d="M64.0855 61.0145C64.3851 61.3355 67.4348 58.2216 68.0768 58.2109C69.5214 58.2002 68.4941 60.8005 67.9698 61.4425C69.1469 61.2606 69.1576 59.5057 70.5593 59.9337C70.6128 62.6303 67.6809 64.5992 65.5301 65.7869C57.9327 69.9922 48.0026 69.2539 39.7097 67.8414C31.2991 66.3968 23.2844 63.4328 15.9652 59.0884L9.45931 67.2422C8.83868 68.1089 7.65092 67.3278 8.02544 66.4717L14.5421 58.1039C9.63052 54.6584 4.22675 49.4258 2.38626 43.5512C-0.149766 35.4616 12.1237 33.7388 17.4419 32.3371C22.3855 31.0316 28.2173 28.9878 33.4071 29.3302C34.1133 29.373 36.6386 30.0578 36.949 29.8866C41.807 23.6803 46.4617 17.7736 52.7001 12.8728C56.1885 10.1335 60.8326 6.69859 65.3375 6.12076C67.0496 5.90675 68.248 6.00306 69.0292 7.70444C69.9922 9.81244 69.7996 14.5421 69.7033 16.9497C69.3716 25.9381 68.7295 36.232 67.7558 45.167C67.1673 50.5601 65.9688 55.921 64.0962 61.0038L64.0855 61.0145ZM39.9558 31.7057C43.0483 33.8137 45.9909 36.7992 48.5804 39.5706C53.3529 44.6641 56.9483 49.4686 59.0242 56.2741L60.3189 61.2285C62.3734 57.815 63.176 53.599 63.6361 49.6826C64.0962 45.7662 63.9892 41.7214 64.0855 37.6338C64.2353 31.2991 64.8131 22.0538 63.604 15.9438C62.5232 10.4973 58.0397 13.7502 55.279 15.9117C49.8324 20.1706 45.167 26.3555 40.1698 31.1814L39.9558 31.7164V31.7057ZM26.5588 32.4227C21.8719 32.8079 16.1257 33.9635 12.1879 36.5745C2.93199 42.7059 11.3854 50.0892 17.2386 54.5086L34.1454 33.3322C31.9946 32.1337 28.9878 32.2301 26.5695 32.4227H26.5588ZM36.8741 34.7447L18.8437 55.7284C26.8584 61.5709 37.5696 64.4493 47.3927 65.3161C48.8801 65.4445 56.2848 65.8511 57.066 65.3054C57.5903 64.9416 57.4405 63.7003 57.3977 63.0583C56.852 55.2576 46.1835 42.3099 40.3838 37.1951C39.8488 36.7243 37.377 34.6056 36.8634 34.7447H36.8741Z" fill="#00005B"/>
<path d="M72.4106 56.4134C70.4096 58.4251 67.6916 54.8618 70.1421 53.3744C72.0147 52.2402 73.9514 54.8725 72.4106 56.4134Z" fill="#00005B"/>
</svg>
